<mxfile host="app.diagrams.net" modified="2022-09-01T13:46:15.516Z" agent="5.0 (Windows NT 10.0; Win64; x64) AppleWebKit/537.36 (KHTML, like Gecko) Chrome/104.0.0.0 Safari/537.36" etag="qqsWP3HzibppQQThQfoX" version="20.2.7" type="github">
  <diagram name="Page-1" id="edf60f1a-56cd-e834-aa8a-f176f3a09ee4">
    <mxGraphModel dx="868" dy="450" grid="1" gridSize="10" guides="1" tooltips="1" connect="1" arrows="1" fold="1" page="1" pageScale="1" pageWidth="1100" pageHeight="850" background="none" math="0" shadow="0">
      <root>
        <mxCell id="0" />
        <mxCell id="1" parent="0" />
        <mxCell id="KUzfKvxZOgdDjwlzOoHa-2" value="EPL 토트넘 홈경기&lt;br&gt;티켓팅 사이트 접속" style="rounded=1;whiteSpace=wrap;html=1;" vertex="1" parent="1">
          <mxGeometry x="65" y="20" width="119" height="60" as="geometry" />
        </mxCell>
        <mxCell id="KUzfKvxZOgdDjwlzOoHa-4" value="" style="endArrow=classic;html=1;rounded=0;exitX=0.5;exitY=1;exitDx=0;exitDy=0;" edge="1" parent="1" source="KUzfKvxZOgdDjwlzOoHa-2">
          <mxGeometry width="50" height="50" relative="1" as="geometry">
            <mxPoint x="115" y="260" as="sourcePoint" />
            <mxPoint x="125" y="130" as="targetPoint" />
          </mxGeometry>
        </mxCell>
        <mxCell id="KUzfKvxZOgdDjwlzOoHa-9" value="" style="endArrow=classic;html=1;rounded=0;exitX=0.5;exitY=1;exitDx=0;exitDy=0;" edge="1" parent="1" source="KUzfKvxZOgdDjwlzOoHa-16">
          <mxGeometry width="50" height="50" relative="1" as="geometry">
            <mxPoint x="125" y="230" as="sourcePoint" />
            <mxPoint x="125" y="240" as="targetPoint" />
          </mxGeometry>
        </mxCell>
        <mxCell id="KUzfKvxZOgdDjwlzOoHa-16" value="경기일자&lt;br&gt;경기내용&lt;br&gt;경기장" style="rounded=0;whiteSpace=wrap;html=1;" vertex="1" parent="1">
          <mxGeometry x="65" y="140" width="119" height="60" as="geometry" />
        </mxCell>
        <mxCell id="KUzfKvxZOgdDjwlzOoHa-17" value="경기 선택" style="shape=manualInput;whiteSpace=wrap;html=1;" vertex="1" parent="1">
          <mxGeometry x="65" y="240" width="119" height="70" as="geometry" />
        </mxCell>
        <mxCell id="KUzfKvxZOgdDjwlzOoHa-19" value="" style="endArrow=classic;html=1;rounded=0;exitX=0.5;exitY=1;exitDx=0;exitDy=0;" edge="1" parent="1" source="KUzfKvxZOgdDjwlzOoHa-17">
          <mxGeometry width="50" height="50" relative="1" as="geometry">
            <mxPoint x="115" y="310" as="sourcePoint" />
            <mxPoint x="125" y="360" as="targetPoint" />
          </mxGeometry>
        </mxCell>
        <mxCell id="KUzfKvxZOgdDjwlzOoHa-20" value="경기장 좌석&lt;br&gt;보이기" style="shape=process;whiteSpace=wrap;html=1;backgroundOutline=1;" vertex="1" parent="1">
          <mxGeometry x="65" y="365" width="119" height="60" as="geometry" />
        </mxCell>
        <mxCell id="KUzfKvxZOgdDjwlzOoHa-21" value="" style="endArrow=classic;html=1;rounded=0;exitX=0.5;exitY=1;exitDx=0;exitDy=0;" edge="1" parent="1">
          <mxGeometry width="50" height="50" relative="1" as="geometry">
            <mxPoint x="124.5" y="425" as="sourcePoint" />
            <mxPoint x="124.5" y="475" as="targetPoint" />
          </mxGeometry>
        </mxCell>
        <mxCell id="KUzfKvxZOgdDjwlzOoHa-22" value="1" style="ellipse;whiteSpace=wrap;html=1;aspect=fixed;" vertex="1" parent="1">
          <mxGeometry x="100" y="480" width="49" height="50" as="geometry" />
        </mxCell>
        <mxCell id="KUzfKvxZOgdDjwlzOoHa-23" value="1" style="ellipse;whiteSpace=wrap;html=1;aspect=fixed;" vertex="1" parent="1">
          <mxGeometry x="330" y="20" width="49" height="50" as="geometry" />
        </mxCell>
        <mxCell id="KUzfKvxZOgdDjwlzOoHa-24" value="" style="endArrow=classic;html=1;rounded=0;exitX=0.5;exitY=1;exitDx=0;exitDy=0;" edge="1" parent="1" source="KUzfKvxZOgdDjwlzOoHa-23">
          <mxGeometry width="50" height="50" relative="1" as="geometry">
            <mxPoint x="340" y="270" as="sourcePoint" />
            <mxPoint x="355" y="120" as="targetPoint" />
          </mxGeometry>
        </mxCell>
        <mxCell id="KUzfKvxZOgdDjwlzOoHa-25" value="좌석 선택" style="shape=manualInput;whiteSpace=wrap;html=1;" vertex="1" parent="1">
          <mxGeometry x="295" y="130" width="119" height="70" as="geometry" />
        </mxCell>
        <mxCell id="KUzfKvxZOgdDjwlzOoHa-26" value="" style="endArrow=classic;html=1;rounded=0;exitX=0.5;exitY=1;exitDx=0;exitDy=0;" edge="1" parent="1">
          <mxGeometry width="50" height="50" relative="1" as="geometry">
            <mxPoint x="354.0000000000002" y="200" as="sourcePoint" />
            <mxPoint x="354.5" y="250.0000000000001" as="targetPoint" />
          </mxGeometry>
        </mxCell>
        <mxCell id="KUzfKvxZOgdDjwlzOoHa-28" value="" style="swimlane;horizontal=0;" vertex="1" parent="1">
          <mxGeometry x="295" y="260" width="120" height="70" as="geometry">
            <mxRectangle x="270" y="140" width="50" height="40" as="alternateBounds" />
          </mxGeometry>
        </mxCell>
        <mxCell id="KUzfKvxZOgdDjwlzOoHa-30" value="개별 좌석&lt;br&gt;보이기" style="whiteSpace=wrap;html=1;" vertex="1" parent="KUzfKvxZOgdDjwlzOoHa-28">
          <mxGeometry x="23" width="97" height="70" as="geometry" />
        </mxCell>
        <mxCell id="KUzfKvxZOgdDjwlzOoHa-32" value="" style="endArrow=classic;html=1;rounded=0;exitX=0.5;exitY=1;exitDx=0;exitDy=0;" edge="1" parent="1">
          <mxGeometry width="50" height="50" relative="1" as="geometry">
            <mxPoint x="354.5" y="330" as="sourcePoint" />
            <mxPoint x="355" y="380" as="targetPoint" />
          </mxGeometry>
        </mxCell>
        <mxCell id="KUzfKvxZOgdDjwlzOoHa-33" value="최종 선택" style="shape=manualInput;whiteSpace=wrap;html=1;" vertex="1" parent="1">
          <mxGeometry x="295" y="380" width="119" height="70" as="geometry" />
        </mxCell>
        <mxCell id="KUzfKvxZOgdDjwlzOoHa-36" value="" style="endArrow=classic;html=1;rounded=0;exitX=0.5;exitY=1;exitDx=0;exitDy=0;" edge="1" parent="1" source="KUzfKvxZOgdDjwlzOoHa-33">
          <mxGeometry width="50" height="50" relative="1" as="geometry">
            <mxPoint x="350" y="350" as="sourcePoint" />
            <mxPoint x="355" y="500" as="targetPoint" />
          </mxGeometry>
        </mxCell>
        <mxCell id="KUzfKvxZOgdDjwlzOoHa-37" value="2" style="ellipse;whiteSpace=wrap;html=1;aspect=fixed;" vertex="1" parent="1">
          <mxGeometry x="330.5" y="500" width="49" height="50" as="geometry" />
        </mxCell>
        <mxCell id="KUzfKvxZOgdDjwlzOoHa-38" value="2" style="ellipse;whiteSpace=wrap;html=1;aspect=fixed;" vertex="1" parent="1">
          <mxGeometry x="540" y="20" width="49" height="50" as="geometry" />
        </mxCell>
        <mxCell id="KUzfKvxZOgdDjwlzOoHa-39" value="" style="endArrow=classic;html=1;rounded=0;exitX=0.5;exitY=1;exitDx=0;exitDy=0;" edge="1" parent="1" source="KUzfKvxZOgdDjwlzOoHa-38">
          <mxGeometry width="50" height="50" relative="1" as="geometry">
            <mxPoint x="350" y="50" as="sourcePoint" />
            <mxPoint x="565" y="110" as="targetPoint" />
          </mxGeometry>
        </mxCell>
        <mxCell id="KUzfKvxZOgdDjwlzOoHa-40" value="결재" style="rhombus;whiteSpace=wrap;html=1;" vertex="1" parent="1">
          <mxGeometry x="524.5" y="110" width="80" height="80" as="geometry" />
        </mxCell>
        <mxCell id="KUzfKvxZOgdDjwlzOoHa-41" value="" style="endArrow=classic;html=1;rounded=0;exitX=0.5;exitY=1;exitDx=0;exitDy=0;entryX=0.5;entryY=0;entryDx=0;entryDy=0;" edge="1" parent="1" source="KUzfKvxZOgdDjwlzOoHa-40" target="KUzfKvxZOgdDjwlzOoHa-42">
          <mxGeometry width="50" height="50" relative="1" as="geometry">
            <mxPoint x="350" y="250" as="sourcePoint" />
            <mxPoint x="565" y="250" as="targetPoint" />
          </mxGeometry>
        </mxCell>
        <mxCell id="KUzfKvxZOgdDjwlzOoHa-42" value="결재수단선택" style="shape=manualInput;whiteSpace=wrap;html=1;" vertex="1" parent="1">
          <mxGeometry x="505" y="280" width="119" height="70" as="geometry" />
        </mxCell>
        <mxCell id="KUzfKvxZOgdDjwlzOoHa-43" value="" style="endArrow=classic;html=1;rounded=0;exitX=0.5;exitY=1;exitDx=0;exitDy=0;entryX=0.5;entryY=0;entryDx=0;entryDy=0;" edge="1" parent="1" target="KUzfKvxZOgdDjwlzOoHa-45">
          <mxGeometry width="50" height="50" relative="1" as="geometry">
            <mxPoint x="564" y="350" as="sourcePoint" />
            <mxPoint x="680" y="400" as="targetPoint" />
            <Array as="points">
              <mxPoint x="565" y="400" />
              <mxPoint x="664" y="400" />
            </Array>
          </mxGeometry>
        </mxCell>
        <mxCell id="KUzfKvxZOgdDjwlzOoHa-45" value="토트넘 홈 경기&lt;br&gt;발권 완료" style="rounded=1;whiteSpace=wrap;html=1;" vertex="1" parent="1">
          <mxGeometry x="604.5" y="460" width="119" height="60" as="geometry" />
        </mxCell>
        <mxCell id="KUzfKvxZOgdDjwlzOoHa-46" value="" style="endArrow=classic;html=1;rounded=0;" edge="1" parent="1" target="KUzfKvxZOgdDjwlzOoHa-47">
          <mxGeometry width="50" height="50" relative="1" as="geometry">
            <mxPoint x="604.5" y="150" as="sourcePoint" />
            <mxPoint x="760" y="200" as="targetPoint" />
            <Array as="points">
              <mxPoint x="760" y="150" />
            </Array>
          </mxGeometry>
        </mxCell>
        <mxCell id="KUzfKvxZOgdDjwlzOoHa-47" value="장바구니" style="rounded=0;whiteSpace=wrap;html=1;" vertex="1" parent="1">
          <mxGeometry x="700" y="190" width="120" height="60" as="geometry" />
        </mxCell>
        <mxCell id="KUzfKvxZOgdDjwlzOoHa-48" value="" style="endArrow=classic;html=1;rounded=0;exitX=0.5;exitY=1;exitDx=0;exitDy=0;" edge="1" parent="1">
          <mxGeometry width="50" height="50" relative="1" as="geometry">
            <mxPoint x="759.5" y="250" as="sourcePoint" />
            <mxPoint x="760" y="290" as="targetPoint" />
          </mxGeometry>
        </mxCell>
        <mxCell id="KUzfKvxZOgdDjwlzOoHa-49" value="결재" style="rounded=0;whiteSpace=wrap;html=1;" vertex="1" parent="1">
          <mxGeometry x="700" y="290" width="120" height="60" as="geometry" />
        </mxCell>
        <mxCell id="KUzfKvxZOgdDjwlzOoHa-50" value="" style="endArrow=none;html=1;rounded=0;" edge="1" parent="1">
          <mxGeometry width="50" height="50" relative="1" as="geometry">
            <mxPoint x="660" y="400" as="sourcePoint" />
            <mxPoint x="760" y="350" as="targetPoint" />
            <Array as="points">
              <mxPoint x="760" y="400" />
            </Array>
          </mxGeometry>
        </mxCell>
      </root>
    </mxGraphModel>
  </diagram>
</mxfile>
